PathFileType	4	(X/Y/Z)	RBDS001\RBDS001runT45.trc
DataRate	CameraRate	NumFrames	NumMarkers	Units	OrigDataRate	OrigDataStartFrame	OrigNumFrames
150.000000	150.000000	4	33	mm	150.000000	3937	4500
Frame#	Time	L.ASIS			L.Heel.Bottom			L.Heel.Lateral			L.Heel.Top			L.Iliac.Crest			L.MT1			L.MT5			L.PSIS			L.Shank.Bottom.Lateral			L.Shank.Bottom.Medial			L.Shank.Top.Lateral			L.Shank.Top.Medial			L.Thigh.Bottom.Lateral			L.Thigh.Bottom.Medial			L.Thigh.Top.Lateral			L.Thigh.Top.Medial			R.ASIS			R.ASY			R.Heel.Bottom			R.Heel.Lateral			R.Heel.Top			R.Iliac.Crest			R.MT1			R.MT5			R.PSIS			R.Shank.Bottom.Lateral			R.Shank.Bottom.Medial			R.Shank.Top.Lateral			R.Shank.Top.Medial			R.Thigh.Bottom.Lateral			R.Thigh.Bottom.Medial			R.Thigh.Top.Lateral			R.Thigh.Top.Medial			
		X1	Y1	Z1	X2	Y2	Z2	X3	Y3	Z3	X4	Y4	Z4	X5	Y5	Z5	X6	Y6	Z6	X7	Y7	Z7	X8	Y8	Z8	X9	Y9	Z9	X10	Y10	Z10	X11	Y11	Z11	X12	Y12	Z12	X13	Y13	Z13	X14	Y14	Z14	X15	Y15	Z15	X16	Y16	Z16	X17	Y17	Z17	X18	Y18	Z18	X19	Y19	Z19	X20	Y20	Z20	X21	Y21	Z21	X22	Y22	Z22	X23	Y23	Z23	X24	Y24	Z24	X25	Y25	Z25	X26	Y26	Z26	X27	Y27	Z27	X28	Y28	Z28	X29	Y29	Z29	X30	Y30	Z30	X31	Y31	Z31	X32	Y32	Z32	X33	Y33	Z33	

3938	26.24666666666667	2370.289821798012	990.4954511810021	932.7793199550025	2045.965644339838	531.631574482504	962.3246839957836	2059.801020893511	506.9514263513317	919.9508442942125	2092.244149524711	522.7062929725212	963.3017577169655	2312.702565955805	1060.562592062379	893.4713899527798	2065.214655485433	307.4333038825924	983.5830476002579	2052.866820347972	348.9584712957522	883.0366201434263	2194.82442847887	1038.117159510343	983.6337181635217	2192.327661486248	482.0807838525093	902.7790578196206	2180.970042919751	518.9872479336831	937.1937677696685	2267.341813496303	510.3032856075383	892.4313394252023	2259.955068029336	548.2591192102723	929.749288294985	2457.854865117622	637.1837458091788	867.054172885861	2416.835338407489	607.9411832928409	920.3721266313473	2381.012878838342	715.9428003912064	855.7839667699535	2341.971639884493	688.4176682026823	905.9173164127494	2343.486265454428	986.6202034514789	1142.641797996899	1883416116.900405	3474567373.152177	-5486565398.281415	1929.629782993899	61.98831475760782	1017.932977506168	1961.683698589028	70.63562789026416	1062.116513988208	1949.312185980372	107.4996859710274	1019.782946568531	2286.68459987003	1058.38188145621	1167.591962119894	2150.87512191909	49.92714746412368	974.606171022411	2125.896112191103	44.70433420405374	1081.612527299301	2191.237529654474	1041.136498635836	1058.782164104696	2072.448917497373	176.4019182863855	1080.959114360666	2036.767074220446	209.035592231923	1056.186276913496	2112.500522126439	242.5715382954986	1106.876864470351	2077.746119592327	274.0846890771213	1080.195671843486	2263.154205525335	565.2159956579683	1152.281155309971	2206.390748212844	563.1732802818658	1104.138492303082	2240.597606497966	672.4749318635107	1169.893895219004	2186.241739910951	669.5871778285523	1125.075170259072	
3939	26.25333333333333	2371.744988606032	995.3685970947425	934.6867120389165	2057.606408149707	511.0329680419599	964.0445568591194	2074.193188984497	488.1094318025125	921.5513627169537	2104.593854230035	506.5980110276472	965.2942818251558	2314.2423235061	1065.33513144734	894.6695401195051	2097.711825075598	289.3427842331723	984.0376656682994	2082.427246796627	330.1718229365852	883.5879766752697	2196.417747639973	1042.42641580261	984.2917512028281	2209.615322777884	473.0384422995154	904.4148759499375	2195.758423234636	509.377865366336	938.5555952052317	2282.577418483182	506.2073314702342	893.7990968968187	2272.596816975474	543.8216330803244	930.7528454730495	2467.737689158842	648.2274227128686	867.8992802469384	2428.121558251348	618.1654040660674	921.8738716761538	2387.854285583695	724.1169165331971	856.2184163699642	2350.083011607626	695.677852485516	906.8660620251133	2344.405260174636	987.7507940594109	1144.051345435771	1884892647.066638	3477299009.274914	-5490878284.98013	1901.28918759789	69.99199049090016	1018.244442776121	1933.759779557337	76.94841846161999	1062.442663059595	1922.645683537935	114.7345051601459	1020.418476623802	2289.584778796618	1060.781161409793	1168.088377877595	2121.044997075733	49.24690090209433	974.4828535874842	2095.781371833374	44.63608093054901	1081.38116824107	2192.884021966025	1044.407695352993	1059.651616416004	2045.807888599933	182.0746052586061	1081.410501218494	2011.044281358473	215.0202156949648	1055.849158597238	2086.731070197266	247.839729633479	1106.957753580326	2052.825604101876	279.6493135550921	1079.610495124005	2247.037099612926	567.407576087488	1152.194533792543	2190.075662243806	567.9208315177524	1104.273479946766	2229.209442896517	675.6044825956342	1169.868702626006	2174.744923951067	675.213336580873	1125.047970857809	
3940	26.26	2373.469892548978	1000.661744582233	936.7310600508523	2070.677744027858	489.1307167547012	966.3833305083054	2089.713018673277	468.1904521724147	923.6696351585917	2117.9971809773	489.2171245409357	967.7115125324386	2316.334533666522	1070.594838965382	895.9705998278091	2131.225898497205	271.6727302111242	984.7005232519501	2112.776879181704	311.5829376972472	884.4443569920248	2198.472991072206	1047.102602763797	985.1111603573282	2227.16644555967	463.2664509827362	906.2888299324701	2210.772350827863	498.8473899752709	940.1287945346	2297.668996315317	501.3858679222547	895.3657389459106	2285.021483475474	538.4901928708009	931.9152019799661	2476.513014849429	659.1924806813182	868.9967393544645	2438.158723189283	628.5342318356699	923.5959473523478	2394.090764250889	732.4694766832798	856.8106899434713	2357.482065308651	703.3707511207857	907.9673298576855	2345.950783585904	989.0879893798528	1145.371784636737	1886369948.720679	3480032076.737538	-5495193431.273623	1874.032065629078	79.46256126423386	1018.656776584952	1906.845930266005	84.45122121476395	1062.856749344249	1897.302343995725	123.1576243931087	1021.197090936071	2293.474712738924	1063.357784410126	1168.595017875498	2091.609575711746	48.54424542423874	974.3814735980081	2065.971465454005	44.68134327046236	1081.220115556207	2195.037665958243	1048.022627075983	1060.695513793989	2020.081201955993	188.6690761793541	1081.962803603385	1986.190622795576	221.7136993808747	1055.469701482077	2061.621885251868	254.1953232058471	1107.075560507628	2028.517321274631	286.1082168386928	1078.905448484332	2231.243912142645	570.8041380453573	1152.04562500967	2174.243694791888	573.9997358797142	1104.303088154028	2218.263454624207	679.7110111722379	1169.891590826657	2163.854240834554	681.9058169663522	1125.021994329252	
3941	26.26666666666667	2375.357882234789	1006.25630312157	938.7869898402909	2085.420577526356	466.1655349977702	969.2810566042975	2106.521980297888	447.3568016019609	926.2647110870596	2132.692218364456	470.7226984143601	970.4852132578728	2318.801401941335	1076.227192958634	897.3054674377397	2165.685408688554	254.5646372934245	985.5641773862291	2143.808348514583	293.266683633851	885.6101520111279	2200.912098402073	1052.068023559542	986.1023559925228	2245.106427852206	452.8159015735341	908.3442642114277	2226.176572082652	487.4190641330331	941.8783162613563	2312.740672885418	495.8198711900454	897.0930425639012	2297.386825307758	532.2148120966735	933.2258931306677	2484.246257429478	669.9147201946319	870.3069129678885	2446.933926878788	638.7785061792572	925.392398193811	2399.769484030698	740.8769898773235	857.5464888148293	2364.13504951192	711.2851918249154	909.114251522038	2348.109099845643	990.6151387714177	1146.50220829198	1887848022.064022	3482766575.914955	-5499510837.753654	1848.177515429322	90.46641823238656	1019.167011844774	1881.175655977856	93.19926184997368	1063.375573933579	1873.573604760465	132.7816985751965	1022.159273731804	2298.217401421236	1066.078252059049	1169.074819461469	2062.710983632842	47.93924580186991	974.4011004893955	2036.562613842826	44.90288595515793	1081.20507779449	2197.654727188356	1051.938273359625	1061.911706916884	1995.501410723061	196.1319559954172	1082.699976705915	1962.437053310837	229.0565299887935	1055.138098397521	2037.415586928835	261.5897868102938	1107.301678023514	2005.056400921611	293.4053990011733	1078.163279113259	2215.935860604946	575.4281121873828	1151.852452272508	2159.056860640114	581.3881569350351	1104.247874031736	2207.875782462206	684.7963509952291	1169.968103084972	2153.698964466058	689.6268110619936	1125.001846332439	
